<svg width="22" height="22" viewBox="0 0 22 22" fill="none" xmlns="http://www.w3.org/2000/svg">
<path d="M11 5.39173C7.89649 5.39173 5.39181 7.89642 5.39181 10.9999C5.39181 14.1035 7.89649 16.6081 11 16.6081C14.1035 16.6081 16.6082 14.1035 16.6082 10.9999C16.6082 7.89642 14.1035 5.39173 11 5.39173ZM11 14.6449C8.99298 14.6449 7.35509 13.007 7.35509 10.9999C7.35509 8.9929 8.99298 7.35501 11 7.35501C13.007 7.35501 14.6449 8.9929 14.6449 10.9999C14.6449 13.007 13.007 14.6449 11 14.6449ZM16.8379 3.85501C16.1133 3.85501 15.5281 4.44017 15.5281 5.16478C15.5281 5.88939 16.1133 6.47454 16.8379 6.47454C17.5625 6.47454 18.1477 5.89212 18.1477 5.16478C18.1479 4.99272 18.1142 4.8223 18.0484 4.6633C17.9827 4.50429 17.8862 4.35982 17.7645 4.23815C17.6429 4.11649 17.4984 4.02002 17.3394 3.95427C17.1804 3.88853 17.01 3.8548 16.8379 3.85501ZM21.932 10.9999C21.932 9.49056 21.9457 7.99486 21.8609 6.48822C21.7762 4.73822 21.377 3.18509 20.0973 1.9054C18.8149 0.622981 17.2645 0.226497 15.5145 0.141731C14.0051 0.0569656 12.5094 0.0706375 11.0027 0.0706375C9.49337 0.0706375 7.99766 0.0569656 6.49102 0.141731C4.74102 0.226497 3.1879 0.625716 1.90821 1.9054C0.625789 3.18783 0.229305 4.73822 0.144539 6.48822C0.0597732 7.99759 0.0734452 9.49329 0.0734452 10.9999C0.0734452 12.5066 0.0597732 14.005 0.144539 15.5117C0.229305 17.2617 0.628523 18.8148 1.90821 20.0945C3.19063 21.3769 4.74102 21.7734 6.49102 21.8581C8.0004 21.9429 9.4961 21.9292 11.0027 21.9292C12.5121 21.9292 14.0078 21.9429 15.5145 21.8581C17.2645 21.7734 18.8176 21.3742 20.0973 20.0945C21.3797 18.812 21.7762 17.2617 21.8609 15.5117C21.9484 14.005 21.932 12.5093 21.932 10.9999ZM19.5258 17.4476C19.3262 17.9452 19.0856 18.3171 18.7 18.6999C18.3145 19.0855 17.9453 19.3261 17.4477 19.5257C16.0094 20.0972 12.5941 19.9687 11 19.9687C9.40587 19.9687 5.9879 20.0972 4.54962 19.5285C4.05196 19.3288 3.68009 19.0882 3.29727 18.7027C2.91173 18.3171 2.6711 17.948 2.47149 17.4503C1.90274 16.0093 2.03126 12.5941 2.03126 10.9999C2.03126 9.40579 1.90274 5.98783 2.47149 4.54954C2.6711 4.05189 2.91173 3.68001 3.29727 3.2972C3.68282 2.91439 4.05196 2.67103 4.54962 2.47142C5.9879 1.90267 9.40587 2.03118 11 2.03118C12.5941 2.03118 16.0121 1.90267 17.4504 2.47142C17.9481 2.67103 18.3199 2.91165 18.7027 3.2972C19.0883 3.68275 19.3289 4.05189 19.5285 4.54954C20.0973 5.98783 19.9688 9.40579 19.9688 10.9999C19.9688 12.5941 20.0973 16.0093 19.5258 17.4476Z" fill="#41D87D"/>
</svg>
