<svg width="29" height="21" viewBox="0 0 29 21" fill="none" xmlns="http://www.w3.org/2000/svg">
<path d="M28.0625 10.4151C28.0625 10.3485 28.0625 10.2729 28.0595 10.1851C28.0564 9.93984 28.0504 9.66436 28.0443 9.3707C28.0201 8.52607 27.9777 7.68447 27.9111 6.89131C27.8203 5.79844 27.6871 4.88721 27.5055 4.20303C27.3138 3.48903 26.9381 2.83784 26.4158 2.31456C25.8936 1.79128 25.2432 1.41423 24.5296 1.22109C23.6729 0.991015 21.9957 0.84873 19.6344 0.760937C18.5112 0.718555 17.3094 0.691308 16.1075 0.676172C15.6867 0.670117 15.2962 0.66709 14.945 0.664062H14.055C13.7038 0.66709 13.3133 0.670117 12.8925 0.676172C11.6906 0.691308 10.4888 0.718555 9.36562 0.760937C7.0043 0.851758 5.32412 0.994043 4.47041 1.22109C3.75657 1.41375 3.10589 1.79064 2.5836 2.314C2.06131 2.83736 1.68574 3.48879 1.49453 4.20303C1.30986 4.88721 1.17969 5.79844 1.08887 6.89131C1.02227 7.68447 0.979883 8.52607 0.955664 9.3707C0.946582 9.66436 0.943555 9.93984 0.940527 10.1851C0.940527 10.2729 0.9375 10.3485 0.9375 10.4151V10.5847C0.9375 10.6513 0.9375 10.727 0.940527 10.8147C0.943555 11.06 0.949609 11.3354 0.955664 11.6291C0.979883 12.4737 1.02227 13.3153 1.08887 14.1085C1.17969 15.2014 1.31289 16.1126 1.49453 16.7968C1.88203 18.2469 3.02031 19.3912 4.47041 19.7787C5.32412 20.0088 7.0043 20.1511 9.36562 20.2389C10.4888 20.2812 11.6906 20.3085 12.8925 20.3236C13.3133 20.3297 13.7038 20.3327 14.055 20.3357H14.945C15.2962 20.3327 15.6867 20.3297 16.1075 20.3236C17.3094 20.3085 18.5112 20.2812 19.6344 20.2389C21.9957 20.148 23.6759 20.0058 24.5296 19.7787C25.9797 19.3912 27.118 18.2499 27.5055 16.7968C27.6901 16.1126 27.8203 15.2014 27.9111 14.1085C27.9777 13.3153 28.0201 12.4737 28.0443 11.6291C28.0534 11.3354 28.0564 11.06 28.0595 10.8147C28.0595 10.727 28.0625 10.6513 28.0625 10.5847V10.4151ZM25.8828 10.5726C25.8828 10.6361 25.8828 10.7058 25.8798 10.7875C25.8768 11.0236 25.8707 11.284 25.8646 11.5655C25.8435 12.3708 25.8011 13.1761 25.7375 13.9238C25.6558 14.8986 25.5407 15.6979 25.3984 16.2337C25.2107 16.933 24.6598 17.487 23.9635 17.6717C23.3277 17.8412 21.7263 17.9774 19.5496 18.0592C18.4477 18.1016 17.2609 18.1288 16.0772 18.1439C15.6625 18.15 15.278 18.153 14.9329 18.153H14.0671L12.9228 18.1439C11.7391 18.1288 10.5554 18.1016 9.45039 18.0592C7.27373 17.9744 5.66924 17.8412 5.03652 17.6717C4.34023 17.484 3.78926 16.933 3.60156 16.2337C3.45928 15.6979 3.34424 14.8986 3.2625 13.9238C3.19893 13.1761 3.15957 12.3708 3.13535 11.5655C3.12627 11.284 3.12324 11.0206 3.12021 10.7875C3.12021 10.7058 3.11719 10.6331 3.11719 10.5726V10.4272C3.11719 10.3637 3.11719 10.294 3.12021 10.2123C3.12324 9.97617 3.1293 9.71582 3.13535 9.43428C3.15654 8.629 3.19893 7.82373 3.2625 7.07598C3.34424 6.10117 3.45928 5.30195 3.60156 4.76611C3.78926 4.0668 4.34023 3.51279 5.03652 3.32813C5.67227 3.15859 7.27373 3.02236 9.45039 2.94062C10.5523 2.89824 11.7391 2.871 12.9228 2.85586C13.3375 2.8498 13.722 2.84678 14.0671 2.84678H14.9329L16.0772 2.85586C17.2609 2.871 18.4446 2.89824 19.5496 2.94062C21.7263 3.02539 23.3308 3.15859 23.9635 3.32813C24.6598 3.51582 25.2107 4.0668 25.3984 4.76611C25.5407 5.30195 25.6558 6.10117 25.7375 7.07598C25.8011 7.82373 25.8404 8.629 25.8646 9.43428C25.8737 9.71582 25.8768 9.9792 25.8798 10.2123C25.8798 10.294 25.8828 10.3667 25.8828 10.4272V10.5726ZM11.8057 14.5565L18.8291 10.4696L11.8057 6.44326V14.5565Z" fill="#41D87D"/>
</svg>
